<?xml version="1.0" encoding="UTF-8"?>
<svg width="27px" height="26px" viewBox="0 0 27 26" version="1.1" xmlns="http://www.w3.org/2000/svg" xmlns:xlink="http://www.w3.org/1999/xlink">
    <!-- Generator: Sketch 51.2 (57519) - http://www.bohemiancoding.com/sketch -->
    <title>733553</title>
    <desc>Created with Sketch.</desc>
    <defs></defs>
    <g id="Page-1" stroke="none" stroke-width="1" fill="none" fill-rule="evenodd">
        <g id="Desktop-HD" transform="translate(-242.000000, -611.000000)" fill="#FFFFFF" fill-rule="nonzero">
            <g id="Group" transform="translate(164.000000, 611.000000)">
                <g id="733553" transform="translate(78.000000, 0.000000)">
                    <path d="M13.2573068,0.0170398406 C5.9367012,0.0170398406 0,5.97694422 0,13.3290398 C0,19.2093904 3.79869323,24.1980757 9.06913147,25.9598606 C9.73207968,26.082506 9.97405578,25.6714781 9.97405578,25.3184582 C9.97405578,25.0019004 9.96245418,24.1649283 9.9558247,23.05449 C6.2681753,23.8583147 5.48921116,21.269502 5.48921116,21.269502 C4.88758566,19.7314622 4.01746614,19.3220916 4.01746614,19.3220916 C2.81255777,18.4967211 4.10696414,18.5132948 4.10696414,18.5132948 C5.43783267,18.6077649 6.13724303,19.8855976 6.13724303,19.8855976 C7.32060558,21.9191912 9.24149801,21.3324821 9.99725896,20.9910637 C10.1165896,20.1308884 10.4596653,19.5441793 10.8392032,19.2110478 C7.89571315,18.8746016 4.79974502,17.7326733 4.79974502,12.6329442 C4.79974502,11.1794303 5.31684462,9.99109562 6.16541833,9.05965339 C6.02785657,8.72320717 5.57373705,7.36913546 6.29469323,5.53774104 C6.29469323,5.53774104 7.40844622,5.179749 9.94090837,6.90175697 C10.9983108,6.60674502 12.1319522,6.45923904 13.2606215,6.45426693 C14.3859761,6.46089641 15.5212749,6.60674502 16.5803347,6.90341434 C19.1111394,5.18140637 20.2232351,5.53939841 20.2232351,5.53939841 C20.9458486,7.3724502 20.4917291,8.72486454 20.3558247,9.06131076 C21.2060558,9.99275299 21.7181833,11.1810876 21.7181833,12.6346016 C21.7181833,17.7475896 18.6189004,18.8729442 15.6654661,19.202761 C16.1411315,19.6137888 16.5654183,20.4259004 16.5654183,21.6672709 C16.5654183,23.4472869 16.5488446,24.8825697 16.5488446,25.3184582 C16.5488446,25.6747928 16.787506,26.0891355 17.4603984,25.9582032 C22.7225498,24.194761 26.5179283,19.2077331 26.5179283,13.3290398 C26.5179283,5.97694422 20.5812271,0.0170398406 13.2573068,0.0170398406 Z" id="Shape"></path>
                </g>
            </g>
        </g>
    </g>
</svg>