<?xml version="1.0" encoding="UTF-8"?>
<svg width="37px" height="26px" viewBox="0 0 37 26" version="1.1" xmlns="http://www.w3.org/2000/svg" xmlns:xlink="http://www.w3.org/1999/xlink">
    <!-- Generator: Sketch 51.2 (57519) - http://www.bohemiancoding.com/sketch -->
    <title>12194</title>
    <desc>Created with Sketch.</desc>
    <defs></defs>
    <g id="Page-1" stroke="none" stroke-width="1" fill="none" fill-rule="evenodd">
        <g id="Desktop-HD" transform="translate(-315.000000, -611.000000)" fill="#FFFFFF" fill-rule="nonzero">
            <g id="Group" transform="translate(164.000000, 611.000000)">
                <g id="12194" transform="translate(151.000000, 0.000000)">
                    <path d="M18.2,18.2 L13.6968,14.2584 L0.8216,25.2954 C1.2896,25.7296 1.9214,26 2.6182,26 L33.7818,26 C34.476,26 35.1052,25.7296 35.5706,25.2954 L22.7032,14.2584 L18.2,18.2 Z" id="Shape"></path>
                    <path d="M35.5784,0.7046 C35.1104,0.2678 34.4812,0 33.7818,0 L2.6182,0 C1.924,0 1.2948,0.2704 0.8268,0.7098 L18.2,15.6 L35.5784,0.7046 Z" id="Shape"></path>
                    <polygon id="Shape" points="0 2.2828 0 23.8836 12.5658 13.2054"></polygon>
                    <polygon id="Shape" points="23.8342 13.2054 36.4 23.8836 36.4 2.275"></polygon>
                </g>
            </g>
        </g>
    </g>
</svg>